<svg width="31" height="28" viewBox="0 0 31 28" fill="none" xmlns="http://www.w3.org/2000/svg">
<path d="M5.05702 20.4263C5.25164 20.6216 5.40077 20.8575 5.49378 21.1171C5.5868 21.3767 5.62141 21.6536 5.59514 21.9281C5.46336 23.1986 5.21354 24.454 4.84889 25.6781C7.46452 25.0725 9.06202 24.3713 9.78764 24.0037C10.1992 23.7953 10.6732 23.7459 11.1189 23.865C12.3966 24.2056 13.7135 24.3771 15.0358 24.375C22.5283 24.375 28.1608 19.1119 28.1608 13.125C28.1608 7.14 22.5283 1.875 15.0358 1.875C7.54327 1.875 1.91077 7.14 1.91077 13.125C1.91077 15.8775 3.06764 18.4312 5.05702 20.4263ZM4.13264 27.7481C3.68839 27.8362 3.24271 27.9168 2.79577 27.99C2.42077 28.05 2.13577 27.66 2.28389 27.3113C2.45038 26.9186 2.60297 26.5203 2.74139 26.1169L2.74702 26.0981C3.21202 24.7481 3.59077 23.1956 3.72952 21.75C1.42889 19.4438 0.0357666 16.425 0.0357666 13.125C0.0357666 5.87625 6.75202 0 15.0358 0C23.3195 0 30.0358 5.87625 30.0358 13.125C30.0358 20.3738 23.3195 26.25 15.0358 26.25C13.5501 26.252 12.0706 26.0591 10.6351 25.6763C9.66014 26.1694 7.56202 27.0675 4.13264 27.7481Z" fill="black"/>
</svg>
