<svg width="40" height="41" viewBox="0 0 40 41" fill="none" xmlns="http://www.w3.org/2000/svg">
<path d="M20 10.5L22.39 15.1287L27.5 15.8713L23.75 19.25L25 24.25L20 21.4375L15 24.25L16.25 19.25L12.5 15.8713L17.75 15.1287L20 10.5Z" fill="black" fill-opacity="0.8"/>
<path d="M22.17 38L20 36.75L25 28H32.5C32.8284 28.0005 33.1538 27.9362 33.4573 27.8107C33.7608 27.6852 34.0366 27.5011 34.2689 27.2689C34.5011 27.0366 34.6852 26.7608 34.8107 26.4573C34.9362 26.1538 35.0005 25.8284 35 25.5V10.5C35.0005 10.1716 34.9362 9.84624 34.8107 9.54271C34.6852 9.23917 34.5011 8.96338 34.2689 8.73113C34.0366 8.49889 33.7608 8.31476 33.4573 8.1893C33.1538 8.06383 32.8284 7.99951 32.5 8H7.5C7.17156 7.99951 6.84624 8.06383 6.54271 8.1893C6.23917 8.31476 5.96338 8.49889 5.73113 8.73113C5.49889 8.96338 5.31476 9.23917 5.1893 9.54271C5.06383 9.84624 4.99951 10.1716 5 10.5V25.5C4.99951 25.8284 5.06383 26.1538 5.1893 26.4573C5.31476 26.7608 5.49889 27.0366 5.73113 27.2689C5.96338 27.5011 6.23917 27.6852 6.54271 27.8107C6.84624 27.9362 7.17156 28.0005 7.5 28H18.75V30.5H7.5C6.17392 30.5 4.90215 29.9732 3.96447 29.0355C3.02678 28.0979 2.5 26.8261 2.5 25.5V10.5C2.49984 9.84334 2.62905 9.19309 2.88027 8.58639C3.13148 7.97969 3.49977 7.42843 3.9641 6.9641C4.42843 6.49977 4.97969 6.13148 5.58639 5.88027C6.19309 5.62905 6.84334 5.49984 7.5 5.5H32.5C33.1567 5.49984 33.8069 5.62905 34.4136 5.88027C35.0203 6.13148 35.5716 6.49977 36.0359 6.9641C36.5002 7.42843 36.8685 7.97969 37.1197 8.58639C37.3709 9.19309 37.5002 9.84334 37.5 10.5V25.5C37.5 26.8261 36.9732 28.0979 36.0355 29.0355C35.0979 29.9732 33.8261 30.5 32.5 30.5H26.4563L22.17 38Z" fill="black" fill-opacity="0.8"/>
</svg>
